<?xml version="1.0"?>
<svg xmlns="http://www.w3.org/2000/svg" xmlns:xlink="http://www.w3.org/1999/xlink" version="1.1" viewBox="0 0 224 224" width="208px" height="208px"><g fill="none" fill-rule="nonzero" stroke="none" stroke-width="1" stroke-linecap="butt" stroke-linejoin="miter" stroke-miterlimit="10" stroke-dasharray="" stroke-dashoffset="0" font-family="none" font-weight="none" font-size="none" text-anchor="none" style="mix-blend-mode: normal"><path d="M0,224v-224h224v224z" fill="none"/><g fill="#0265aa"><g id="surface1"><path d="M182,0h-140c-23.1875,0 -42,18.8125 -42,42v140c0,23.1875 18.8125,42 42,42h140c23.1875,0 42,-18.8125 42,-42v-140c0,-23.1875 -18.8125,-42 -42,-42zM176.3125,120.64904h-20.96635v77.57212h-35v-77.57212h-13.59615v-26.14904h13.59615v-16.65866c0,-21.80769 9.05288,-34.76442 34.79808,-34.76442h26.04807v26.04808h-15.14423c-9.9952,0 -10.66828,3.70192 -10.66828,10.70192l-0.03365,14.67308h23.82692z"/></g></g></g></svg>
