<svg xmlns="http://www.w3.org/2000/svg" viewBox="0 0 10 10"><defs><style>.cls-1{fill:#333;}</style></defs><title>ic_mail</title><g id="Слой_2" data-name="Слой 2"><g id="ic_mail"><g id="ic_mail-2" data-name="ic_mail"><path class="cls-1" d="M10,4.7A3.74,3.74,0,0,1,9.6,6.3a2.39,2.39,0,0,1-.94,1,2.66,2.66,0,0,1-1.37.35A1.56,1.56,0,0,1,5.84,7a1.85,1.85,0,0,1-1.49.7A1.59,1.59,0,0,1,3,7,2.4,2.4,0,0,1,2.6,5.27a4.15,4.15,0,0,1,.5-1.56,3,3,0,0,1,1-1.06,2.49,2.49,0,0,1,1.32-.37A3,3,0,0,1,7,2.64l.38.22L7,6a1.05,1.05,0,0,0,.07.65.48.48,0,0,0,.46.22,1,1,0,0,0,.85-.59,3.18,3.18,0,0,0,.38-1.49A3.85,3.85,0,0,0,8,1.88a3.47,3.47,0,0,0-2.7-1A3.57,3.57,0,0,0,2.51,2,4.68,4.68,0,0,0,1.36,5.1,4,4,0,0,0,2.18,8a3.49,3.49,0,0,0,2.72,1A6.42,6.42,0,0,0,6,9a5,5,0,0,0,.94-.27l.24.83a3.31,3.31,0,0,1-1,.35A5.9,5.9,0,0,1,4.88,10a5.91,5.91,0,0,1-2.72-.57A3.67,3.67,0,0,1,.49,7.75,5.36,5.36,0,0,1,0,5.1,5.56,5.56,0,0,1,.76,2.45,4.76,4.76,0,0,1,2.62.64,5.44,5.44,0,0,1,5.29,0,5.52,5.52,0,0,1,7.87.57,3.74,3.74,0,0,1,9.51,2.22,4.84,4.84,0,0,1,10,4.7Zm-5.86.57a2.07,2.07,0,0,0,.13,1.07.61.61,0,0,0,.59.37.64.64,0,0,0,.44-.22,1.73,1.73,0,0,0,.35-.6L5.9,3.26a2.38,2.38,0,0,0-.34,0,1.15,1.15,0,0,0-1,.49A3.29,3.29,0,0,0,4.13,5.27Z"/></g></g></g></svg>